<svg id="Calque_1" data-name="Calque 1" xmlns="http://www.w3.org/2000/svg" viewBox="0 0 323.24 283.7"><defs><style>.cls-1{fill:#16897f;}.cls-2{fill:#dc6911;}</style></defs><title>SIT-1-without-text</title><path class="cls-1" d="M243.08,128.32v-13.5a2.25,2.25,0,0,0-2.25-2.25h-36a2.25,2.25,0,0,0-2.25,2.25v13.5a2.25,2.25,0,0,0,2.25,2.25h36A2.24,2.24,0,0,0,243.08,128.32Z"/><path class="cls-1" d="M270.08,137.32v9a2.25,2.25,0,0,0,2.25,2.25h18a2.25,2.25,0,0,1,2.25,2.25h0a2.25,2.25,0,0,0,2.25,2.25h9a2.24,2.24,0,0,0,2.25-2.25v-13.5a2.25,2.25,0,0,0-2.25-2.25h-31.5A2.25,2.25,0,0,0,270.08,137.32Z"/><rect class="cls-1" x="292.58" y="225.07" width="13.5" height="18" rx="2.25" ry="2.25"/><rect class="cls-1" x="292.58" y="202.57" width="13.5" height="18" rx="2.25" ry="2.25"/><rect class="cls-1" x="292.58" y="157.57" width="13.5" height="18" rx="2.25" ry="2.25"/><rect class="cls-1" x="292.58" y="180.07" width="13.5" height="18" rx="2.25" ry="2.25"/><path class="cls-1" d="M243.08,135.07H227.33a2.25,2.25,0,0,0-2.25,2.25v9a2.25,2.25,0,0,0,2.25,2.25h36a2.24,2.24,0,0,0,2.25-2.25v-9a2.25,2.25,0,0,0-2.25-2.25H243.08Z"/><rect class="cls-1" x="247.58" y="112.57" width="18" height="18" rx="2.25" ry="2.25"/><rect class="cls-1" x="292.58" y="247.57" width="13.5" height="18" rx="2.25" ry="2.25"/><path class="cls-1" d="M243.08,90.07H227.33a2.25,2.25,0,0,0-2.25,2.25v13.5a2.25,2.25,0,0,0,2.25,2.25h36a2.24,2.24,0,0,0,2.25-2.25V92.32a2.25,2.25,0,0,0-2.25-2.25H243.08Z"/><rect class="cls-1" x="247.58" y="67.57" width="18" height="18" rx="2.25" ry="2.25"/><rect class="cls-1" x="36.08" y="270.07" width="283.5" height="13.5" rx="2.25" ry="2.25"/><path class="cls-1" d="M196.11,130.57a2.25,2.25,0,0,0,2.25-2.25v-8.51l-6.22,10.76Z"/><path class="cls-1" d="M220.86,85.57h20.25a2.25,2.25,0,0,0,2.25-2.25V69.82a2.25,2.25,0,0,0-2.25-2.25h-12.6l-10.39,18Z"/><path class="cls-1" d="M218.61,108.07a2.25,2.25,0,0,0,2.25-2.25V92.32a2.25,2.25,0,0,0-2.25-2.25h-3.09l-10.39,18Z"/><path class="cls-1" d="M182.61,148.57h36a2.25,2.25,0,0,0,2.25-2.25v-9a2.25,2.25,0,0,0-2.25-2.25H189.54l-7.71,13.36A2.21,2.21,0,0,0,182.61,148.57Z"/><path class="cls-1" d="M263.33,18.07a2.24,2.24,0,0,0,2.25-2.25V3.37l-8.49,14.7Z"/><path class="cls-1" d="M247.58,38.32a2.25,2.25,0,0,0,2.25,2.25h13.5a2.24,2.24,0,0,0,2.25-2.25V24.82a2.25,2.25,0,0,0-2.25-2.25h-8.84l-6.91,12Z"/><path class="cls-1" d="M243.08,63.07h20.25a2.24,2.24,0,0,0,2.25-2.25V47.32a2.25,2.25,0,0,0-2.25-2.25H241.5l-10.39,18Z"/><path class="cls-2" d="M84.61,4.57l-10.39,18-20.78,36c-5.74,9.94-2.34,18,7.6,18s22.66-8.06,28.4-18l20.78-36,10.39-18Z"/><path class="cls-2" d="M129.61,4.57l-10.39,18-20.78,36c-5.74,9.94-2.34,18,7.6,18s22.66-8.06,28.4-18l20.78-36,10.39-18Z"/><path class="cls-2" d="M174.61,4.57l-10.39,18-20.78,36c-5.74,9.94-2.34,18,7.6,18s22.66-8.06,28.4-18l20.78-36,10.39-18Z"/><path class="cls-2" d="M219.61,4.57l-10.39,18-20.78,36c-5.74,9.94-2.34,18,7.6,18s22.66-8.06,28.4-18l20.78-36,10.39-18Z"/><path class="cls-2" d="M37.85,85.57l-10.39,18-20.79,36c-5.74,9.94-2.33,18,7.61,18s22.65-8.06,28.39-18l20.79-36,10.39-18Z"/><path class="cls-2" d="M82.85,85.57l-10.39,18-20.79,36c-5.74,9.94-2.33,18,7.61,18s22.65-8.06,28.39-18l20.79-36,10.39-18Z"/><path class="cls-2" d="M127.85,85.57l-10.39,18-20.79,36c-5.74,9.94-2.33,18,7.61,18s22.65-8.06,28.39-18l20.79-36,10.39-18Z"/><path class="cls-2" d="M172.85,85.57l-10.39,18-20.79,36c-5.74,9.94-2.33,18,7.61,18s22.65-8.06,28.39-18l20.79-36,10.39-18Z"/><path class="cls-1" d="M108,242q-.66-10.64-1.5-17a53.9,53.9,0,0,0,10,3.47,35.75,35.75,0,0,0,7.68,1,15.72,15.72,0,0,0,6.92-1.27,4,4,0,0,0,2.58-3.77,5.13,5.13,0,0,0-.25-1.62,6.83,6.83,0,0,0-.95-1.75,13.53,13.53,0,0,0-2-2.12L121,210.72q-3.3-2.79-4.6-4a29.54,29.54,0,0,1-4.13-4.75,16.45,16.45,0,0,1-2.15-4.46,16.86,16.86,0,0,1-.68-4.82,17.11,17.11,0,0,1,1.08-6,18.11,18.11,0,0,1,3.22-5.47,18.6,18.6,0,0,1,5.69-4.39,25.32,25.32,0,0,1,7.59-2.52,50.48,50.48,0,0,1,8.34-.67,96.59,96.59,0,0,1,18.37,1.94c.1,2.3.21,4.41.35,6.32s.45,5.27.95,10.06a45.84,45.84,0,0,0-8.39-2.57,36,36,0,0,0-6.54-.73,13.12,13.12,0,0,0-6.47,1.45q-2.57,1.46-2.57,3.6a4.89,4.89,0,0,0,.4,1.94,8.82,8.82,0,0,0,1.5,2.22,25.49,25.49,0,0,0,2.9,2.8c1.19,1,3.07,2.52,5.64,4.52l3.59,2.85a45.43,45.43,0,0,1,3.45,3.14,34.24,34.24,0,0,1,3.19,3.65,19.74,19.74,0,0,1,2.07,3.29,14.4,14.4,0,0,1,1.08,3,14.84,14.84,0,0,1,.35,3.27A18.33,18.33,0,0,1,147,239.65a25.51,25.51,0,0,1-8.66,3.67,45.81,45.81,0,0,1-10,1.05A113.48,113.48,0,0,1,108,242Z"/><path class="cls-1" d="M165.29,243.07q2.88-40.08,2.88-61.71l0-6.44q8.74.11,11.69.1,1.35,0,10.75-.1-.92,11.24-1.46,21.27-.71,14-1,26.14t-.3,20.74l-10.23-.1Q174.57,243,165.29,243.07Z"/><path class="cls-1" d="M215.22,243.07q2.47-24.25,3-53.42l-21.25.55.25-5.54q.21-4.44.3-9.74,14.17.11,33,.11l12.32-.06h12l6.49-.05-.3,4.89q-.19,3.94-.27,6.51c-.05,1.71-.08,3-.08,3.88q-10.67-.54-17.61-.55h-3.49q-.75,8.82-1.15,16.3-.56,10.71-.86,20.8t-.3,16.32c-5.45-.06-9-.1-10.58-.1C225.26,243,221.44,243,215.22,243.07Z"/></svg>