<svg id="Calque_1" data-name="Calque 1" xmlns="http://www.w3.org/2000/svg" viewBox="0 0 319.7 283.72"><defs><style>.cls-1{fill:#127abf;}.cls-2{fill:#fff;}.cls-3{fill:#dc6911;}</style></defs><title>Plan de travail 1</title><path class="cls-1" d="M243.13,128.32v-13.5a2.25,2.25,0,0,0-2.25-2.25h-36a2.24,2.24,0,0,0-2.24,2.25v13.5a2.24,2.24,0,0,0,2.24,2.25h36A2.25,2.25,0,0,0,243.13,128.32Z"/><path class="cls-1" d="M270.13,137.32v9a2.24,2.24,0,0,0,2.24,2.25h18a2.25,2.25,0,0,1,2.25,2.25h0a2.24,2.24,0,0,0,2.24,2.25h9a2.25,2.25,0,0,0,2.25-2.25v-13.5a2.25,2.25,0,0,0-2.25-2.25H272.37A2.24,2.24,0,0,0,270.13,137.32Z"/><rect class="cls-1" x="292.63" y="225.07" width="13.5" height="18" rx="2.25" ry="2.25"/><rect class="cls-1" x="292.63" y="202.57" width="13.5" height="18" rx="2.25" ry="2.25"/><rect class="cls-1" x="292.63" y="157.57" width="13.5" height="18" rx="2.25" ry="2.25"/><rect class="cls-1" x="292.63" y="180.07" width="13.5" height="18" rx="2.25" ry="2.25"/><path class="cls-1" d="M243.13,135.07H227.37a2.24,2.24,0,0,0-2.24,2.25v9a2.24,2.24,0,0,0,2.24,2.25h36a2.25,2.25,0,0,0,2.25-2.25v-9a2.25,2.25,0,0,0-2.25-2.25H243.13Z"/><rect class="cls-1" x="247.63" y="112.57" width="18" height="18" rx="2.25" ry="2.25"/><rect class="cls-1" x="292.63" y="247.57" width="13.5" height="18" rx="2.25" ry="2.25"/><path class="cls-1" d="M243.13,90.07H227.37a2.24,2.24,0,0,0-2.24,2.25v13.5a2.24,2.24,0,0,0,2.24,2.25h36a2.25,2.25,0,0,0,2.25-2.25V92.32a2.25,2.25,0,0,0-2.25-2.25H243.13Z"/><rect class="cls-1" x="247.63" y="67.57" width="18" height="18" rx="2.25" ry="2.25"/><rect class="cls-1" x="36.13" y="270.07" width="283.5" height="13.5" rx="2.25" ry="2.25"/><path class="cls-1" d="M196.15,130.57a2.25,2.25,0,0,0,2.25-2.25v-8.51l-6.22,10.76Z"/><path class="cls-1" d="M220.9,85.57h20.25a2.25,2.25,0,0,0,2.25-2.25V69.82a2.25,2.25,0,0,0-2.25-2.25H228.56l-10.4,18Z"/><path class="cls-1" d="M218.65,108.07a2.25,2.25,0,0,0,2.25-2.25V92.32a2.25,2.25,0,0,0-2.25-2.25h-3.08l-10.4,18Z"/><path class="cls-1" d="M182.65,148.57h36a2.25,2.25,0,0,0,2.25-2.25v-9a2.25,2.25,0,0,0-2.25-2.25H189.58l-7.71,13.36A2.25,2.25,0,0,0,182.65,148.57Z"/><path class="cls-1" d="M263.38,18.07a2.25,2.25,0,0,0,2.25-2.25V3.37l-8.5,14.7Z"/><path class="cls-1" d="M247.63,38.32a2.24,2.24,0,0,0,2.25,2.25h13.5a2.25,2.25,0,0,0,2.25-2.25V24.82a2.25,2.25,0,0,0-2.25-2.25h-8.84l-6.91,12Z"/><path class="cls-1" d="M243.13,63.07h20.25a2.25,2.25,0,0,0,2.25-2.25V47.32a2.25,2.25,0,0,0-2.25-2.25H241.55l-10.4,18Z"/><path class="cls-2" d="M180.4,137.32v9a2.25,2.25,0,0,0,1.47,2.11l7.71-13.36h-6.93A2.25,2.25,0,0,0,180.4,137.32Z"/><path class="cls-3" d="M84.66,4.57l-10.4,18-20.78,36c-5.74,9.94-2.33,18,7.61,18s22.65-8.06,28.39-18l20.78-36,10.4-18Z"/><path class="cls-3" d="M129.66,4.57l-10.4,18-20.78,36c-5.74,9.94-2.33,18,7.61,18s22.65-8.06,28.39-18l20.78-36,10.4-18Z"/><path class="cls-3" d="M174.66,4.57l-10.4,18-20.78,36c-5.74,9.94-2.33,18,7.61,18s22.65-8.06,28.39-18l20.78-36,10.4-18Z"/><path class="cls-3" d="M219.66,4.57l-10.4,18-20.78,36c-5.74,9.94-2.33,18,7.61,18s22.65-8.06,28.39-18l20.78-36,10.4-18Z"/><path class="cls-3" d="M37.89,85.57l-10.39,18-20.79,36c-5.74,9.94-2.33,18,7.61,18s22.65-8.06,28.39-18l20.79-36,10.39-18Z"/><path class="cls-3" d="M82.89,85.57l-10.39,18-20.79,36c-5.74,9.94-2.33,18,7.61,18s22.65-8.06,28.39-18l20.79-36,10.39-18Z"/><path class="cls-3" d="M127.89,85.57l-10.39,18-20.79,36c-5.74,9.94-2.33,18,7.61,18s22.65-8.06,28.39-18l20.79-36,10.39-18Z"/><path class="cls-3" d="M172.89,85.57l-10.39,18-20.79,36c-5.74,9.94-2.33,18,7.61,18s22.65-8.06,28.39-18l20.79-36,10.39-18Z"/><path class="cls-1" d="M108,242q-.64-10.64-1.5-17a53.9,53.9,0,0,0,10,3.47,35.9,35.9,0,0,0,7.68,1,15.72,15.72,0,0,0,6.92-1.27,4,4,0,0,0,2.58-3.77,5.13,5.13,0,0,0-.25-1.62,6.53,6.53,0,0,0-1-1.75,13.07,13.07,0,0,0-2-2.12l-9.41-8.19q-3.3-2.79-4.6-4a30.05,30.05,0,0,1-4.13-4.75,16.45,16.45,0,0,1-2.15-4.46,16.86,16.86,0,0,1-.67-4.82,17.1,17.1,0,0,1,1.07-6,18.31,18.31,0,0,1,3.22-5.47,18.6,18.6,0,0,1,5.69-4.39,25.32,25.32,0,0,1,7.59-2.52,50.57,50.57,0,0,1,8.34-.67,96.59,96.59,0,0,1,18.37,1.94q.15,3.45.35,6.32c.13,1.91.45,5.27.95,10.06a45.61,45.61,0,0,0-8.39-2.57,36,36,0,0,0-6.54-.73,13.05,13.05,0,0,0-6.46,1.45q-2.58,1.46-2.58,3.6a5.07,5.07,0,0,0,.4,1.94,8.82,8.82,0,0,0,1.5,2.22,25.49,25.49,0,0,0,2.9,2.8c1.2,1,3.07,2.52,5.64,4.52l3.59,2.85a43.59,43.59,0,0,1,3.45,3.14,33.15,33.15,0,0,1,3.19,3.65,20.55,20.55,0,0,1,2.08,3.29,14.36,14.36,0,0,1,1.07,3,14.84,14.84,0,0,1,.35,3.27,18.33,18.33,0,0,1-8.24,15.25,25.51,25.51,0,0,1-8.66,3.67,45.81,45.81,0,0,1-10,1.05A113.57,113.57,0,0,1,108,242Z"/><path class="cls-1" d="M165.33,243.07q2.88-40.08,2.88-61.71l-.05-6.44q8.75.11,11.69.1,1.35,0,10.75-.1-.91,11.24-1.46,21.27-.7,14-1,26.14t-.3,20.74l-10.23-.1Q174.61,243,165.33,243.07Z"/><path class="cls-1" d="M215.26,243.07q2.48-24.25,3-53.42L197,190.2l.25-5.54q.19-4.44.3-9.74,14.18.11,33,.11l12.33-.06h12l6.49-.05-.3,4.89q-.19,3.94-.27,6.51c-.05,1.71-.08,3-.08,3.88q-10.67-.54-17.6-.55h-3.5q-.75,8.82-1.15,16.3-.56,10.71-.86,20.8t-.3,16.32c-5.45-.06-9-.1-10.57-.1C225.3,243,221.48,243,215.26,243.07Z"/></svg>